<svg fill="none" height="32" viewBox="0 0 24 24" width="32" xmlns="http://www.w3.org/2000/svg"><path clip-rule="evenodd" d="m12 21c4.9706 0 9-4.0294 9-9 0-4.97056-4.0294-9-9-9-4.97056 0-9 4.02944-9 9 0 4.9706 4.02944 9 9 9zm-1.1122-11.69914c.4952-.12418 1.2196-.12263 1.7152 0 .4957.12263.9501.3646 1.3198.70274.3698.3382.5799.7555.7295 1.2231.056.175.0853.3406.0943.5042h-3.6157l5.4581 2.5215c.1051-.1504.3323-.5431.4798-1.0095l.0035.0009.0099-.0441c.0124-.0409.0241-.0822.035-.124l-.0075-.0048c.1691-.8257.2174-1.7294-.0374-2.5259-.2727-.85256-.8655-1.89551-1.5397-2.51219s-1.385-.95307-2.2889-1.17668c-.9038-.22362-2.6183-.05836-3.52139.16809zm.9129 5.64404c-.2318.0108-.4087.0191-.5403-.0135-.5563-.1376-.9501-.3646-1.31983-.7028-.36973-.3381-.66144-.6486-.79199-1.321-.13054-.6724-.10872-1.0352 0-1.5129l-2.06731-1.0086c-.02782.1223-.05823.2433-.08898.3657-.18845.7499-.38982 1.5512-.08709 2.9963.27274.8525.6559 1.5632 1.33013 2.1799.67422.6167 1.28742.9584 2.19127 1.1821 1.3692.2367 2.2889.1681 3.1692-.1682l-1.2324-2.0105c-.2159-.0027-.4024.006-.5627.0135z" fill="#1896a4" fill-rule="evenodd"/></svg>